HIERARCHY
ROOT pelvis
{
	OFFSET 0.000000 0.000000 0.000000
	CHANNELS 6 Xposition Yposition Zposition Zrotation Xrotation Yrotation
	JOINT lfemur
	{
		OFFSET 11.446000 0.000000 0.000000
		CHANNELS 3 Zrotation Xrotation Yrotation
		JOINT ltibia
		{
			OFFSET 0.000000 -42.030400 0.000000
			CHANNELS 3 Zrotation Xrotation Yrotation
			JOINT lfoot
			{
				OFFSET 0.000000 -39.930200 0.000000
				CHANNELS 3 Zrotation Xrotation Yrotation
				JOINT ltoes
				{
					OFFSET 0.000000 0.000000 11.775800
					CHANNELS 3 Zrotation Xrotation Yrotation
					End Site
					{
					    OFFSET 0.000000 0.000000 5.000000
					}
				}
			}
		}
	}
	JOINT rfemur
	{
		OFFSET -11.446000 0.000000 0.000000
		CHANNELS 3 Zrotation Xrotation Yrotation
		JOINT rtibia
		{
			OFFSET 0.000000 -42.030400 0.000000
			CHANNELS 3 Zrotation Xrotation Yrotation
			JOINT rfoot
			{
				OFFSET 0.000000 -39.930200 0.000000
				CHANNELS 3 Zrotation Xrotation Yrotation
				JOINT rtoes
				{
					OFFSET 0.000000 0.000000 11.775800
					CHANNELS 3 Zrotation Xrotation Yrotation
					End Site
					{
					    OFFSET 0.000000 0.000000 5.000000
					}
				}
			}
		}
	}
	JOINT thorax
	{
		OFFSET 0.000000 11.255600 -5.000000
		CHANNELS 3 Zrotation Xrotation Yrotation
		JOINT head
		{
			OFFSET 0.000000 43.799300 0.000000
			CHANNELS 3 Zrotation Xrotation Yrotation
			End Site
			{
			    OFFSET 0.000000 5.000000 0.000000
			}
		}
		JOINT lclavicle
		{
			OFFSET 0.000000 39.863000 0.000000
			CHANNELS 3 Zrotation Xrotation Yrotation
			JOINT lhumerus
			{
				OFFSET 17.380600 4.958300 0.000000
				CHANNELS 3 Zrotation Xrotation Yrotation
				JOINT lradius
				{
					OFFSET 0.000000 -27.561300 0.000000
					CHANNELS 3 Zrotation Xrotation Yrotation
					JOINT lhand
					{
						OFFSET 0.000000 -26.933000 0.000000
						CHANNELS 3 Zrotation Xrotation Yrotation
						End Site
						{
						    OFFSET 0.000000 -5.000000 0.000000
						}
					}
				}
			}
		}
		JOINT rclavicle
		{
			OFFSET 0.000000 39.863000 0.000000
			CHANNELS 3 Zrotation Xrotation Yrotation
			JOINT rhumerus
			{
				OFFSET -17.380600 4.958300 0.000000
				CHANNELS 3 Zrotation Xrotation Yrotation
				JOINT rradius
				{
					OFFSET 0.000000 -27.561300 0.000000
					CHANNELS 3 Zrotation Xrotation Yrotation
					JOINT rhand
					{
						OFFSET 0.000000 -26.933000 0.000000
						CHANNELS 3 Zrotation Xrotation Yrotation
						End Site
						{
						    OFFSET 0.000000 -5.000000 0.000000
						}
					}
				}
			}
		}
	}
}
MOTION
Frames:	11
Frame Time:	0.0333333
60.212300 87.494200 6.382000 -2.126316 -0.837539 -89.750080 -3.843732 -0.438790 -8.083946 0.000000 18.669534 0.000000 0.000000 0.275409 10.906861 -0.000000 -1.376275 -0.000000 -0.395784 0.671238 -3.494329 -0.000000 13.667800 0.000000 0.000000 2.232952 -1.388147 -0.000000 -29.541968 -0.000000 -2.661462 2.003425 1.359607 12.671600 27.435737 5.231724 2.753418 0.000000 3.742815 84.594807 -5.139193 68.436543 0.000001 -10.157509 -64.105446 11.756553 1.840919 0.000000 -8.316425 0.000000 -2.800095 -76.530783 4.396797 -67.835609 0.000001 -20.733166 49.543830 -9.531052 -0.159990 -0.000000 
60.224400 87.492200 6.367300 -2.164279 -0.823554 -89.788381 -3.820192 -0.457494 -8.051601 -0.000000 18.775859 -0.000000 -0.000000 0.291677 10.903583 -0.000000 -1.375819 -0.000000 -0.374658 0.690245 -3.441813 -0.000000 13.659637 -0.000000 -0.000000 2.255171 -1.341438 0.000000 -29.542326 -0.000000 -2.672795 2.032576 1.360391 12.640589 27.513127 5.350369 2.626409 0.000000 3.530840 84.593461 -4.616936 67.638501 0.000001 -10.378713 -63.454454 11.585854 1.639009 -0.000000 -8.284698 0.000000 -2.779722 -76.518524 4.369243 -68.017782 0.000001 -20.699253 49.550303 -9.454525 -0.186187 0.000000 
60.235600 87.490400 6.359000 -2.137150 -0.773651 -89.793940 -3.768581 -0.582809 -7.958357 -0.000000 18.954639 -0.000000 -0.000000 0.266443 10.728190 -0.000000 -1.379933 0.000000 -0.300718 0.719198 -3.387209 -0.000000 13.541573 -0.000000 -0.000000 2.362372 -1.411165 0.000000 -29.542757 -0.000000 -2.635372 2.021115 1.349190 12.664280 27.390735 5.210787 2.406084 0.000000 3.371136 84.770514 -4.251494 67.281305 -0.000000 -10.434938 -63.231776 11.577472 1.756196 0.000000 -8.186455 0.000000 -2.761001 -76.572286 4.510943 -67.905845 0.000000 -20.747731 49.386215 -9.403594 -0.204327 0.000000 
60.239600 87.497700 6.365800 -2.098637 -0.768568 -89.799844 -3.783055 -0.659292 -7.975573 0.000000 19.007814 -0.000000 -0.000000 0.287409 10.891031 0.000000 -1.376680 -0.000000 -0.322354 0.722450 -3.510334 -0.000000 13.430090 0.000000 0.000000 2.369814 -1.256218 -0.000000 -29.542292 -0.000000 -2.634086 1.961966 1.371865 12.757401 27.454880 5.112764 2.383847 -0.000000 3.253175 84.681770 -4.070968 67.248644 -0.000001 -10.432469 -63.449962 11.563141 1.873350 -0.000000 -8.151905 0.000000 -2.713334 -76.516239 4.685505 -67.972608 -0.000001 -20.790875 49.511943 -9.071519 -0.316674 0.000000 
60.232900 87.516900 6.362200 -2.106172 -0.693237 -89.766570 -3.708631 -0.640314 -8.031316 -0.000000 18.986958 -0.000000 0.000000 0.309271 10.896760 -0.000000 -1.374113 0.000000 -0.245557 0.876620 -3.680656 -0.000000 13.150134 -0.000000 0.000000 2.551293 -1.136477 -0.000000 -29.542241 -0.000000 -2.574367 1.975538 1.358859 12.889085 27.483703 4.991846 2.321249 -0.000000 3.370999 84.647135 -4.129334 66.709778 -0.000000 -10.520684 -62.759016 11.512251 1.795911 0.000000 -8.070914 0.000000 -2.723794 -76.532693 4.797948 -68.047136 0.000000 -20.751765 49.299923 -8.933515 -0.363258 0.000000 
60.244700 87.534900 6.359100 -2.060284 -0.611162 -89.797849 -3.607868 -0.651935 -7.967972 -0.000000 18.903642 -0.000000 0.000000 0.297804 10.874108 0.000000 -1.377507 0.000000 -0.157678 1.019038 -3.633501 0.000000 12.737376 0.000000 0.000000 2.751792 -1.112938 -0.000000 -29.542012 -0.000000 -2.491337 1.934623 1.353895 12.966628 27.542042 4.961303 2.327251 -0.000000 3.406072 84.514695 -4.081540 66.728864 -0.000001 -10.604391 -62.499412 11.398480 1.832438 -0.000000 -7.942247 -0.000000 -2.793014 -76.640181 4.768949 -68.040480 0.000001 -20.731669 48.963925 -8.802374 -0.407048 -0.000000 
60.261800 87.548800 6.364900 -2.007955 -0.598680 -89.803712 -3.597217 -0.634629 -8.048944 -0.000000 18.758748 -0.000000 0.000000 0.346656 10.899161 0.000000 -1.375050 0.000000 -0.160140 1.025116 -3.772718 -0.000000 12.589147 -0.000000 -0.000000 2.840042 -0.973501 -0.000000 -29.542077 0.000000 -2.493340 1.893420 1.376515 13.083880 27.590680 4.965426 2.322561 -0.000000 3.451934 84.442674 -4.091664 66.657438 -0.000001 -10.665714 -62.243538 11.144334 1.763096 0.000000 -7.933499 0.000000 -3.036190 -76.518374 4.624986 -68.055582 0.000000 -20.841143 49.146147 -8.773157 -0.417344 0.000000 
60.295200 87.554800 6.355900 -1.972054 -0.565982 -89.882409 -3.559094 -0.675614 -7.992454 -0.000000 18.744888 -0.000000 -0.000000 0.348922 10.906293 -0.000000 -1.376410 -0.000000 -0.118052 0.980596 -3.713475 -0.000000 12.540344 -0.000000 0.000000 2.886307 -1.031833 -0.000000 -29.541189 -0.000000 -2.496208 1.863925 1.370146 13.272574 27.567682 4.898574 2.350745 -0.000000 3.391620 84.436823 -3.962061 67.292909 -0.000000 -10.544355 -62.734522 11.169290 1.608882 0.000000 -7.830062 0.000000 -2.951462 -76.565978 4.755730 -68.052880 0.000002 -20.769677 48.989156 -8.870665 -0.383838 -0.000000 
60.342800 87.556800 6.349600 -1.923454 -0.548296 -89.955148 -3.528957 -0.746359 -7.912908 -0.000000 18.745485 -0.000000 -0.000000 0.336272 10.852133 0.000000 -1.374576 -0.000000 -0.094274 0.922892 -3.659830 -0.000000 12.472812 -0.000000 -0.000000 2.957146 -0.853564 -0.000000 -29.541592 -0.000000 -2.515303 1.842902 1.402510 13.395444 27.555802 4.826488 2.386728 -0.000000 3.350168 84.300902 -3.888783 67.584100 -0.000000 -10.657403 -62.698818 11.256889 1.562691 -0.000000 -7.743820 0.000000 -2.988271 -76.549445 4.708257 -68.206922 0.000001 -20.701216 48.927383 -8.838247 -0.394247 0.000000 
60.384200 87.556200 6.354200 -1.895147 -0.549559 -89.975480 -3.535115 -0.775776 -7.908476 -0.000000 18.686621 -0.000000 0.000000 0.355885 10.893777 0.000000 -1.378086 -0.000000 -0.103783 0.833844 -3.643136 -0.000000 12.545368 -0.000000 0.000000 2.930868 -0.888291 0.000000 -29.541264 -0.000000 -2.556582 1.921432 1.363034 13.242150 28.023612 5.375772 2.413221 -0.000000 3.603111 84.302507 -4.318675 68.590912 0.000000 -10.219135 -63.851702 11.605381 1.678528 -0.000000 -7.426439 0.000000 -3.246036 -76.906661 4.408376 -67.913452 0.000001 -20.480656 48.456447 -8.935997 -0.360359 0.000000 
60.432800 87.550400 6.349900 -1.922365 -0.535090 -90.086620 -3.521064 -0.766345 -7.874575 -0.000000 18.684943 0.000000 0.000000 0.302204 10.938574 -0.000000 -1.375677 -0.000000 -0.086743 0.729053 -3.494580 0.000000 12.711288 -0.000000 0.000000 2.880781 -1.019397 0.000000 -29.541572 -0.000000 -2.546744 1.935404 1.361566 13.685308 27.558086 4.668687 2.285823 0.000000 3.381167 84.174626 -3.947498 67.869228 0.000000 -10.440765 -62.912249 11.360504 1.566741 -0.000000 -7.273725 -0.000000 -2.909250 -76.844249 4.786258 -67.478695 -0.000002 -20.735353 48.626051 -8.522968 -0.500845 -0.000000 
